<svg width="64" height="64" viewBox="0 0 64 64" fill="none" xmlns="http://www.w3.org/2000/svg">
<path d="M17.9878 10.6667H46.1688C46.1688 10.6667 43.8205 46.019 32.0784 46.019C26.3422 46.019 22.8478 37.5827 20.7738 28.9523C18.6022 19.9159 17.9878 10.6667 17.9878 10.6667Z" stroke="#7E22CE" stroke-width="1.5" stroke-linecap="round" stroke-linejoin="round"/>
<path d="M46.1685 10.6668C46.1685 10.6668 48.625 8.04635 50.6666 8.00011C54.6666 7.90955 55.4061 10.6668 55.4061 10.6668C56.189 12.2922 56.8151 16.5182 53.0578 20.4192C49.3002 24.3201 45.0941 27.7335 43.3823 28.9524" stroke="#7E22CE" stroke-width="1.5" stroke-linecap="round" stroke-linejoin="round"/>
<path d="M17.9875 10.6668C17.9875 10.6668 15.428 8.01649 13.3333 8.00015C9.33333 7.96892 8.59384 10.6668 8.59384 10.6668C7.81101 12.2922 7.18477 16.5182 10.9423 20.4192C14.6997 24.3201 19.0621 27.7335 20.7736 28.9527" stroke="#7E22CE" stroke-width="1.5" stroke-linecap="round" stroke-linejoin="round"/>
<path d="M22.6841 53.3334C22.6841 48.4572 32.0776 46.019 32.0776 46.019C32.0776 46.019 41.4715 48.4572 41.4715 53.3334H22.6841Z" stroke="#7E22CE" stroke-width="1.5" stroke-linecap="round" stroke-linejoin="round"/>
</svg>
