<svg width="127" height="32" viewBox="0 0 127 32" fill="none" xmlns="http://www.w3.org/2000/svg">
<path d="M37.4078 32H50.3256L18.3257 0H5.40784L37.4078 32Z" fill="#0F172A"/>
<path d="M24.9622 1.63716e-06L55.8095 30.8474V0H47.4617V9.73909L37.7225 0L24.9622 1.63716e-06Z" fill="#0F172A"/>
<path d="M0 1.07129V31.9999H8.34782V22.2607L18.0869 31.9999H30.9287L0 1.07129Z" fill="#0F172A"/>
<path d="M74.2158 19.5352C74.2158 19.2305 74.1689 18.957 74.0752 18.7148C73.9893 18.4648 73.8252 18.2383 73.583 18.0352C73.3408 17.8242 73.001 17.6172 72.5635 17.4141C72.126 17.2109 71.5596 17 70.8643 16.7812C70.0908 16.5312 69.3564 16.25 68.6611 15.9375C67.9736 15.625 67.3643 15.2617 66.833 14.8477C66.3096 14.4258 65.8955 13.9375 65.5908 13.3828C65.2939 12.8281 65.1455 12.1836 65.1455 11.4492C65.1455 10.7383 65.3018 10.0938 65.6143 9.51562C65.9268 8.92969 66.3643 8.42969 66.9268 8.01562C67.4893 7.59375 68.1533 7.26953 68.9189 7.04297C69.6924 6.81641 70.54 6.70312 71.4619 6.70312C72.7197 6.70312 73.8174 6.92969 74.7549 7.38281C75.6924 7.83594 76.4189 8.45703 76.9346 9.24609C77.458 10.0352 77.7197 10.9375 77.7197 11.9531H74.2275C74.2275 11.4531 74.1221 11.0156 73.9111 10.6406C73.708 10.2578 73.3955 9.95703 72.9736 9.73828C72.5596 9.51953 72.0361 9.41016 71.4033 9.41016C70.7939 9.41016 70.2861 9.50391 69.8799 9.69141C69.4736 9.87109 69.1689 10.1172 68.9658 10.4297C68.7627 10.7344 68.6611 11.0781 68.6611 11.4609C68.6611 11.75 68.7314 12.0117 68.8721 12.2461C69.0205 12.4805 69.2393 12.6992 69.5283 12.9023C69.8174 13.1055 70.1729 13.2969 70.5947 13.4766C71.0166 13.6562 71.5049 13.832 72.0596 14.0039C72.9893 14.2852 73.8057 14.6016 74.5088 14.9531C75.2197 15.3047 75.8135 15.6992 76.29 16.1367C76.7666 16.5742 77.126 17.0703 77.3682 17.625C77.6104 18.1797 77.7314 18.8086 77.7314 19.5117C77.7314 20.2539 77.5869 20.918 77.2979 21.5039C77.0088 22.0898 76.5908 22.5859 76.0439 22.9922C75.4971 23.3984 74.8447 23.707 74.0869 23.918C73.3291 24.1289 72.4814 24.2344 71.5439 24.2344C70.7002 24.2344 69.8682 24.125 69.0479 23.9062C68.2275 23.6797 67.4814 23.3398 66.8096 22.8867C66.1455 22.4336 65.6143 21.8555 65.2158 21.1523C64.8174 20.4492 64.6182 19.6172 64.6182 18.6562H68.1455C68.1455 19.1875 68.2275 19.6367 68.3916 20.0039C68.5557 20.3711 68.7861 20.668 69.083 20.8945C69.3877 21.1211 69.7471 21.2852 70.1611 21.3867C70.583 21.4883 71.0439 21.5391 71.5439 21.5391C72.1533 21.5391 72.6533 21.4531 73.0439 21.2812C73.4424 21.1094 73.7354 20.8711 73.9229 20.5664C74.1182 20.2617 74.2158 19.918 74.2158 19.5352ZM79.3721 17.7891V17.543C79.3721 16.6133 79.5049 15.7578 79.7705 14.9766C80.0361 14.1875 80.4229 13.5039 80.9307 12.9258C81.4385 12.3477 82.0635 11.8984 82.8057 11.5781C83.5479 11.25 84.3994 11.0859 85.3604 11.0859C86.3213 11.0859 87.1768 11.25 87.9268 11.5781C88.6768 11.8984 89.3057 12.3477 89.8135 12.9258C90.3291 13.5039 90.7197 14.1875 90.9854 14.9766C91.251 15.7578 91.3838 16.6133 91.3838 17.543V17.7891C91.3838 18.7109 91.251 19.5664 90.9854 20.3555C90.7197 21.1367 90.3291 21.8203 89.8135 22.4062C89.3057 22.9844 88.6807 23.4336 87.9385 23.7539C87.1963 24.0742 86.3447 24.2344 85.3838 24.2344C84.4229 24.2344 83.5674 24.0742 82.8174 23.7539C82.0752 23.4336 81.4463 22.9844 80.9307 22.4062C80.4229 21.8203 80.0361 21.1367 79.7705 20.3555C79.5049 19.5664 79.3721 18.7109 79.3721 17.7891ZM82.7471 17.543V17.7891C82.7471 18.3203 82.7939 18.8164 82.8877 19.2773C82.9814 19.7383 83.1299 20.1445 83.333 20.4961C83.5439 20.8398 83.8174 21.1094 84.1533 21.3047C84.4893 21.5 84.8994 21.5977 85.3838 21.5977C85.8525 21.5977 86.2549 21.5 86.5908 21.3047C86.9268 21.1094 87.1963 20.8398 87.3994 20.4961C87.6025 20.1445 87.751 19.7383 87.8447 19.2773C87.9463 18.8164 87.9971 18.3203 87.9971 17.7891V17.543C87.9971 17.0273 87.9463 16.543 87.8447 16.0898C87.751 15.6289 87.5986 15.2227 87.3877 14.8711C87.1846 14.5117 86.915 14.2305 86.5791 14.0273C86.2432 13.8242 85.8369 13.7227 85.3604 13.7227C84.8838 13.7227 84.4775 13.8242 84.1416 14.0273C83.8135 14.2305 83.5439 14.5117 83.333 14.8711C83.1299 15.2227 82.9814 15.6289 82.8877 16.0898C82.7939 16.543 82.7471 17.0273 82.7471 17.543ZM97.0205 6V24H93.6338V6H97.0205ZM103.372 6V24H99.9854V6H103.372ZM111.997 24.2344C111.013 24.2344 110.13 24.0781 109.349 23.7656C108.567 23.4453 107.903 23.0039 107.356 22.4414C106.817 21.8789 106.403 21.2266 106.114 20.4844C105.825 19.7344 105.681 18.9375 105.681 18.0938V17.625C105.681 16.6641 105.817 15.7852 106.091 14.9883C106.364 14.1914 106.755 13.5 107.263 12.9141C107.778 12.3281 108.403 11.8789 109.138 11.5664C109.872 11.2461 110.7 11.0859 111.622 11.0859C112.521 11.0859 113.317 11.2344 114.013 11.5312C114.708 11.8281 115.29 12.25 115.759 12.7969C116.235 13.3438 116.595 14 116.837 14.7656C117.079 15.5234 117.2 16.3672 117.2 17.2969V18.7031H107.122V16.4531H113.884V16.1953C113.884 15.7266 113.798 15.3086 113.626 14.9414C113.462 14.5664 113.212 14.2695 112.876 14.0508C112.54 13.832 112.11 13.7227 111.587 13.7227C111.142 13.7227 110.759 13.8203 110.438 14.0156C110.118 14.2109 109.856 14.4844 109.653 14.8359C109.458 15.1875 109.31 15.6016 109.208 16.0781C109.114 16.5469 109.067 17.0625 109.067 17.625V18.0938C109.067 18.6016 109.138 19.0703 109.278 19.5C109.427 19.9297 109.634 20.3008 109.899 20.6133C110.173 20.9258 110.501 21.168 110.884 21.3398C111.274 21.5117 111.716 21.5977 112.208 21.5977C112.817 21.5977 113.384 21.4805 113.907 21.2461C114.438 21.0039 114.896 20.6406 115.278 20.1562L116.919 21.9375C116.653 22.3203 116.29 22.6875 115.829 23.0391C115.376 23.3906 114.829 23.6797 114.188 23.9062C113.548 24.125 112.817 24.2344 111.997 24.2344ZM122.497 14.0859V24H119.122V11.3203H122.298L122.497 14.0859ZM126.317 11.2383L126.259 14.3672C126.095 14.3438 125.896 14.3242 125.661 14.3086C125.435 14.2852 125.228 14.2734 125.04 14.2734C124.563 14.2734 124.149 14.3359 123.798 14.4609C123.454 14.5781 123.165 14.7539 122.931 14.9883C122.704 15.2227 122.532 15.5078 122.415 15.8438C122.306 16.1797 122.243 16.5625 122.228 16.9922L121.548 16.7812C121.548 15.9609 121.63 15.207 121.794 14.5195C121.958 13.8242 122.196 13.2188 122.509 12.7031C122.829 12.1875 123.22 11.7891 123.681 11.5078C124.142 11.2266 124.669 11.0859 125.263 11.0859C125.45 11.0859 125.642 11.1016 125.837 11.1328C126.032 11.1562 126.192 11.1914 126.317 11.2383Z" fill="#0F172A"/>
</svg>
