<svg width="64" height="64" viewBox="0 0 64 64" fill="none" xmlns="http://www.w3.org/2000/svg">
<path d="M43.9264 53.3336H10.9333C10.0497 53.3336 9.33331 52.6173 9.33331 51.7336V25.6002C9.33331 24.7166 10.0497 24.0002 10.9333 24.0002H18.3136C20.187 24.0002 21.9231 23.0173 22.8869 21.4109L30.1146 9.36453C31.6744 6.76525 35.3477 6.51816 37.2413 8.8852C38.1338 10.0009 38.4216 11.4838 38.0109 12.8524L35.2845 21.9405C34.9765 22.9671 35.7453 24.0002 36.817 24.0002H49.0173C52.5338 24.0002 55.088 27.3442 54.1626 30.7368L49.0717 49.4034C48.4389 51.724 46.3314 53.3336 43.9264 53.3336Z" stroke="#7E22CE" stroke-width="1.5" stroke-linecap="round"/>
<path d="M18.6667 53.3336V24.0002" stroke="#7E22CE" stroke-width="1.5" stroke-linecap="round" stroke-linejoin="round"/>
</svg>
