<svg width="64" height="64" viewBox="0 0 64 64" fill="none" xmlns="http://www.w3.org/2000/svg">
<path d="M38.6665 22.6668C36.5846 22.1271 33.6916 21.3334 31.3724 21.3334C19.9368 21.3334 10.6665 28.447 10.6665 37.2222C10.6665 42.2649 13.7277 46.7588 18.5018 49.6697L17.2083 53.9358C16.8968 54.9633 17.6657 56.0001 18.7395 56.0001H23.4438C23.7901 56.0001 24.1271 55.8878 24.4041 55.6798L28.123 52.8889H34.6214L38.3404 55.6798C38.6174 55.8878 38.9545 56.0001 39.3009 56.0001H44.0052C45.0788 56.0001 45.8478 54.9633 45.5361 53.9358L44.2428 49.6697C47.087 47.9356 49.3233 45.6393 50.6665 43.0001" stroke="#7E22CE" stroke-width="1.5" stroke-linecap="round" stroke-linejoin="round"/>
<path d="M38.6665 22.6668L50.6665 18.6668L50.4425 28.3423L55.9998 30.6668V40.0001L50.8641 42.6668" stroke="#7E22CE" stroke-width="1.5" stroke-linecap="round" stroke-linejoin="round"/>
<path d="M41.3333 34.6668C40.5971 34.6668 40 34.0697 40 33.3335C40 32.5972 40.5971 32.0001 41.3333 32.0001C42.0696 32.0001 42.6667 32.5972 42.6667 33.3335C42.6667 34.0697 42.0696 34.6668 41.3333 34.6668Z" fill="#7E22CE" stroke="#7E22CE" stroke-width="1.5" stroke-linecap="round" stroke-linejoin="round"/>
<path d="M5.3335 26.6668C5.3335 26.6668 5.3335 33.0668 10.6668 34.6668" stroke="#7E22CE" stroke-width="1.5" stroke-linecap="round" stroke-linejoin="round"/>
<path d="M34.1355 20.6747C34.4795 19.6836 34.6667 18.6171 34.6667 17.506C34.6667 12.2561 30.488 8.00012 25.3333 8.00012C20.1787 8.00012 16 12.2561 16 17.506C16 20.0171 16.956 22.3008 18.5174 24.0001" stroke="#7E22CE" stroke-width="1.5" stroke-linejoin="round"/>
</svg>
