<svg width="64" height="64" viewBox="0 0 64 64" fill="none" xmlns="http://www.w3.org/2000/svg">
<path d="M18.6668 50.6668C21.6123 50.6668 24.0002 48.2791 24.0002 45.3335C24.0002 42.3879 21.6123 40.0001 18.6668 40.0001C15.7213 40.0001 13.3335 42.3879 13.3335 45.3335C13.3335 48.2791 15.7213 50.6668 18.6668 50.6668Z" stroke="#7E22CE" stroke-width="1.5" stroke-miterlimit="1.5" stroke-linecap="round" stroke-linejoin="round"/>
<path d="M45.3333 50.6668C48.2789 50.6668 50.6667 48.2791 50.6667 45.3335C50.6667 42.3879 48.2789 40.0001 45.3333 40.0001C42.3877 40.0001 40 42.3879 40 45.3335C40 48.2791 42.3877 50.6668 45.3333 50.6668Z" stroke="#7E22CE" stroke-width="1.5" stroke-miterlimit="1.5" stroke-linecap="round" stroke-linejoin="round"/>
<path d="M37.3335 45.3335V17.6001C37.3335 16.7165 36.6172 16.0001 35.7335 16.0001H6.9335C6.04984 16.0001 5.3335 16.7165 5.3335 17.6001V43.7335C5.3335 44.6172 6.04984 45.3335 6.9335 45.3335H12.4002" stroke="#7E22CE" stroke-width="1.5" stroke-linecap="round"/>
<path d="M37.3332 45.3335H24.1333" stroke="#7E22CE" stroke-width="1.5" stroke-linecap="round"/>
<path d="M37.3335 24.0001H52.2938C52.926 24.0001 53.4991 24.3725 53.7559 24.9503L58.529 35.6897C58.6199 35.8945 58.6668 36.1159 58.6668 36.3396V43.7335C58.6668 44.6172 57.9506 45.3335 57.0668 45.3335H52.0002" stroke="#7E22CE" stroke-width="1.5" stroke-linecap="round"/>
<path d="M37.3335 45.3335H40.0002" stroke="#7E22CE" stroke-width="1.5" stroke-linecap="round"/>
</svg>
